<svg xmlns="http://www.w3.org/2000/svg" viewBox="0 0 900 452" font-family="-apple-system,BlinkMacSystemFont,'Segoe UI',Helvetica,Arial,sans-serif">
<rect width="900" height="452" rx="18" fill="#0B1220"/>
<text x="70" y="44" fill="#E7EEF9" font-size="22" font-weight="700">Cost of the identical session</text>
<text x="70" y="70" fill="#93A4C3" font-size="14">Total tokens paid across all turns · thousands · lower is better</text>
<defs><linearGradient id="hero" x1="0" y1="0" x2="0" y2="1"><stop offset="0" stop-color="#60A5FA"/><stop offset="1" stop-color="#3B82F6"/></linearGradient><linearGradient id="hero2" x1="0" y1="0" x2="0" y2="1"><stop offset="0" stop-color="#34D399"/><stop offset="1" stop-color="#10B981"/></linearGradient></defs>
<line x1="70" y1="374.0" x2="830" y2="374.0" stroke="#22314F" stroke-width="1" stroke-dasharray="none"/>
<text x="60" y="378.0" fill="#93A4C3" font-size="12" text-anchor="end">0</text>
<line x1="70" y1="311.0" x2="830" y2="311.0" stroke="#22314F" stroke-width="1" stroke-dasharray="3 5"/>
<text x="60" y="315.0" fill="#93A4C3" font-size="12" text-anchor="end">125</text>
<line x1="70" y1="248.0" x2="830" y2="248.0" stroke="#22314F" stroke-width="1" stroke-dasharray="3 5"/>
<text x="60" y="252.0" fill="#93A4C3" font-size="12" text-anchor="end">250</text>
<line x1="70" y1="185.0" x2="830" y2="185.0" stroke="#22314F" stroke-width="1" stroke-dasharray="3 5"/>
<text x="60" y="189.0" fill="#93A4C3" font-size="12" text-anchor="end">375</text>
<line x1="70" y1="122.0" x2="830" y2="122.0" stroke="#22314F" stroke-width="1" stroke-dasharray="3 5"/>
<text x="60" y="126.0" fill="#93A4C3" font-size="12" text-anchor="end">500</text>
<path d="M70.0,374.0 v-131.1 q0,-10 10,-10 h76 q10,0 10,10 v131.1 z" fill="#3D4F73"/>
<text x="118.0" y="220.9" fill="#E7EEF9" font-size="18" font-weight="700" text-anchor="middle">280k</text>
<text x="118.0" y="398.0" fill="#93A4C3" font-size="13.5" text-anchor="middle">carry</text>
<text x="118.0" y="415.0" fill="#93A4C3" font-size="13.5" text-anchor="middle">everything</text>
<path d="M236.0,374.0 v-91.8 q0,-10 10,-10 h76 q10,0 10,10 v91.8 z" fill="#3D4F73"/>
<text x="284.0" y="260.2" fill="#E7EEF9" font-size="18" font-weight="700" text-anchor="middle">202k</text>
<text x="284.0" y="398.0" fill="#93A4C3" font-size="13.5" text-anchor="middle">cut</text>
<text x="284.0" y="415.0" fill="#93A4C3" font-size="13.5" text-anchor="middle">oldest</text>
<path d="M402.0,374.0 v-86.8 q0,-10 10,-10 h76 q10,0 10,10 v86.8 z" fill="#3D4F73"/>
<text x="450.0" y="265.2" fill="#E7EEF9" font-size="18" font-weight="700" text-anchor="middle">192k</text>
<text x="450.0" y="398.0" fill="#93A4C3" font-size="13.5" text-anchor="middle">auto-</text>
<text x="450.0" y="415.0" fill="#93A4C3" font-size="13.5" text-anchor="middle">summarize</text>
<path d="M568.0,374.0 v-65.1 q0,-10 10,-10 h76 q10,0 10,10 v65.1 z" fill="url(#hero)"/>
<text x="616.0" y="286.9" fill="#60A5FA" font-size="18" font-weight="700" text-anchor="middle">149k</text>
<text x="616.0" y="398.0" fill="#60A5FA" font-size="13.5" font-weight="700" text-anchor="middle">ROPE</text>
<text x="616.0" y="415.0" fill="#60A5FA" font-size="13.5" font-weight="700" text-anchor="middle">bound</text>
<path d="M734.0,374.0 v-241.5 q0,-10 10,-10 h76 q10,0 10,10 v241.5 z" fill="url(#hero2)"/>
<text x="782.0" y="110.5" fill="#34D399" font-size="18" font-weight="700" text-anchor="middle">499k</text>
<text x="782.0" y="398.0" fill="#34D399" font-size="13.5" font-weight="700" text-anchor="middle">ROPE</text>
<text x="782.0" y="415.0" fill="#34D399" font-size="13.5" font-weight="700" text-anchor="middle">unbound</text>
</svg>