<svg xmlns="http://www.w3.org/2000/svg" viewBox="0 0 900 470" font-family="-apple-system,BlinkMacSystemFont,'Segoe UI',Helvetica,Arial,sans-serif">
<rect width="900" height="470" rx="18" fill="#0B1220"/>
<text x="78" y="44" fill="#E7EEF9" font-size="22" font-weight="700">The longer the session, the more the rope wins</text>
<text x="78" y="70" fill="#93A4C3" font-size="14">Total tokens vs session length · carry-everything grows O(n¹·³⁴), the rope O(n⁰·⁷³)</text>
<defs><linearGradient id="rg" x1="0" y1="0" x2="0" y2="1"><stop offset="0" stop-color="#60A5FA"/><stop offset="1" stop-color="#3B82F6"/></linearGradient></defs>
<line x1="78" y1="406" x2="822" y2="406" stroke="#22314F" stroke-dasharray="none"/>
<text x="70" y="410" fill="#93A4C3" font-size="11" text-anchor="end">0k</text>
<line x1="78" y1="334" x2="822" y2="334" stroke="#22314F" stroke-dasharray="3 5"/>
<text x="70" y="338" fill="#93A4C3" font-size="11" text-anchor="end">475k</text>
<line x1="78" y1="263" x2="822" y2="263" stroke="#22314F" stroke-dasharray="3 5"/>
<text x="70" y="267" fill="#93A4C3" font-size="11" text-anchor="end">950k</text>
<line x1="78" y1="192" x2="822" y2="192" stroke="#22314F" stroke-dasharray="3 5"/>
<text x="70" y="196" fill="#93A4C3" font-size="11" text-anchor="end">1425k</text>
<line x1="78" y1="120" x2="822" y2="120" stroke="#22314F" stroke-dasharray="3 5"/>
<text x="70" y="124" fill="#93A4C3" font-size="11" text-anchor="end">1900k</text>
<text x="78" y="428" fill="#93A4C3" font-size="12" text-anchor="middle">40</text>
<text x="213" y="428" fill="#93A4C3" font-size="12" text-anchor="middle">80</text>
<text x="349" y="428" fill="#93A4C3" font-size="12" text-anchor="middle">120</text>
<text x="484" y="428" fill="#93A4C3" font-size="12" text-anchor="middle">160</text>
<text x="619" y="428" fill="#93A4C3" font-size="12" text-anchor="middle">200</text>
<text x="822" y="428" fill="#93A4C3" font-size="12" text-anchor="middle">260</text>
<text x="450" y="450" fill="#93A4C3" font-size="12" text-anchor="middle">session length (turns)</text>
<polyline points="78,384 213,360 349,326 484,283 619,231 822,133" fill="none" stroke="#3D4F73" stroke-width="3"/>
<polyline points="78,391 213,383 349,374 484,367 619,358 822,346" fill="none" stroke="url(#rg)" stroke-width="4"/>
<circle cx="78" cy="384" r="4" fill="#3D4F73"/>
<circle cx="213" cy="360" r="4" fill="#3D4F73"/>
<circle cx="349" cy="326" r="4" fill="#3D4F73"/>
<circle cx="484" cy="283" r="4" fill="#3D4F73"/>
<circle cx="619" cy="231" r="4" fill="#3D4F73"/>
<circle cx="822" cy="133" r="4" fill="#3D4F73"/>
<circle cx="78" cy="391" r="4" fill="#60A5FA"/>
<circle cx="213" cy="383" r="4" fill="#60A5FA"/>
<circle cx="349" cy="374" r="4" fill="#60A5FA"/>
<circle cx="484" cy="367" r="4" fill="#60A5FA"/>
<circle cx="619" cy="358" r="4" fill="#60A5FA"/>
<circle cx="822" cy="346" r="4" fill="#60A5FA"/>
<text x="822" y="123" fill="#3D4F73" font-size="13" font-weight="700" text-anchor="end">carry everything</text>
<text x="822" y="334" fill="#60A5FA" font-size="13" font-weight="700" text-anchor="end">ROPE</text>
</svg>