<svg xmlns="http://www.w3.org/2000/svg" viewBox="0 0 900 452" font-family="-apple-system,BlinkMacSystemFont,'Segoe UI',Helvetica,Arial,sans-serif">
<rect width="900" height="452" rx="18" fill="#0B1220"/>
<text x="70" y="44" fill="#E7EEF9" font-size="22" font-weight="700">The rope strategy holds across model tiers</text>
<text x="70" y="70" fill="#93A4C3" font-size="14">Accuracy delivered per 10,000 tokens · bound rope vs carry-everything · same benchmark, three models</text>
<defs><linearGradient id="h" x1="0" y1="0" x2="0" y2="1"><stop offset="0" stop-color="#60A5FA"/><stop offset="1" stop-color="#3B82F6"/></linearGradient></defs>
<line x1="70" y1="374" x2="830" y2="374" stroke="#22314F" stroke-dasharray="none"/>
<text x="60" y="378" fill="#93A4C3" font-size="12" text-anchor="end">0</text>
<line x1="70" y1="311" x2="830" y2="311" stroke="#22314F" stroke-dasharray="3 5"/>
<text x="60" y="315" fill="#93A4C3" font-size="12" text-anchor="end">7</text>
<line x1="70" y1="248" x2="830" y2="248" stroke="#22314F" stroke-dasharray="3 5"/>
<text x="60" y="252" fill="#93A4C3" font-size="12" text-anchor="end">14</text>
<line x1="70" y1="185" x2="830" y2="185" stroke="#22314F" stroke-dasharray="3 5"/>
<text x="60" y="189" fill="#93A4C3" font-size="12" text-anchor="end">21</text>
<line x1="70" y1="122" x2="830" y2="122" stroke="#22314F" stroke-dasharray="3 5"/>
<text x="60" y="126" fill="#93A4C3" font-size="12" text-anchor="end">28</text>
<path d="M121,374 v-127 q0,-8 8,-8 h54 q8,0 8,8 v127 z" fill="#3D4F73"/>
<text x="156" y="229" fill="#93A4C3" font-size="15" font-weight="700" text-anchor="middle">15.2</text>
<text x="156" y="396" fill="#93A4C3" font-size="11" text-anchor="middle">carry all</text>
<path d="M203,374 v-211 q0,-8 8,-8 h54 q8,0 8,8 v211 z" fill="url(#h)"/>
<text x="238" y="145" fill="#60A5FA" font-size="15" font-weight="700" text-anchor="middle">24.6</text>
<text x="238" y="396" fill="#60A5FA" font-size="11" text-anchor="middle">ROPE</text>
<text x="197" y="418" fill="#E7EEF9" font-size="14" font-weight="700" text-anchor="middle">Haiku 4.5</text>
<path d="M374,374 v-127 q0,-8 8,-8 h54 q8,0 8,8 v127 z" fill="#3D4F73"/>
<text x="409" y="229" fill="#93A4C3" font-size="15" font-weight="700" text-anchor="middle">15.2</text>
<text x="409" y="396" fill="#93A4C3" font-size="11" text-anchor="middle">carry all</text>
<path d="M456,374 v-198 q0,-8 8,-8 h54 q8,0 8,8 v198 z" fill="url(#h)"/>
<text x="491" y="158" fill="#60A5FA" font-size="15" font-weight="700" text-anchor="middle">23.1</text>
<text x="491" y="396" fill="#60A5FA" font-size="11" text-anchor="middle">ROPE</text>
<text x="450" y="418" fill="#E7EEF9" font-size="14" font-weight="700" text-anchor="middle">Sonnet 4.6</text>
<path d="M627,374 v-117 q0,-8 8,-8 h54 q8,0 8,8 v117 z" fill="#3D4F73"/>
<text x="662" y="239" fill="#93A4C3" font-size="15" font-weight="700" text-anchor="middle">14.0</text>
<text x="662" y="396" fill="#93A4C3" font-size="11" text-anchor="middle">carry all</text>
<path d="M709,374 v-195 q0,-8 8,-8 h54 q8,0 8,8 v195 z" fill="url(#h)"/>
<text x="744" y="161" fill="#60A5FA" font-size="15" font-weight="700" text-anchor="middle">22.8</text>
<text x="744" y="396" fill="#60A5FA" font-size="11" text-anchor="middle">ROPE</text>
<text x="703" y="418" fill="#E7EEF9" font-size="14" font-weight="700" text-anchor="middle">Opus 4.8</text>
</svg>