<svg xmlns="http://www.w3.org/2000/svg" viewBox="0 0 960 440" font-family="-apple-system,BlinkMacSystemFont,'Segoe UI',Helvetica,Arial,sans-serif">
<rect width="960" height="440" rx="18" fill="#0B1220"/>
<defs><marker id="arr" viewBox="0 0 10 10" refX="9" refY="5" markerWidth="8" markerHeight="8" orient="auto-start-reverse">
                <path d="M0,0 L10,5 L0,10 z" fill="#5B708F"/></marker>
                <marker id="arrB" viewBox="0 0 10 10" refX="9" refY="5" markerWidth="7" markerHeight="7" orient="auto-start-reverse">
                <path d="M0,0 L10,5 L0,10 z" fill="#3B82F6"/></marker></defs>
<text x="480" y="44" fill="#E7EEF9" font-size="19" font-weight="700" text-anchor="middle">The jump: a context clear that loses nothing</text>
<rect x="40" y="80" width="260" height="320" rx="14" fill="none" stroke="#2A3B5F"/>
<text x="170" y="110" fill="#93A4C3" font-size="13" font-weight="700" letter-spacing="2" text-anchor="middle">1 — DURING WORK</text>
<rect x="350" y="80" width="260" height="320" rx="14" fill="none" stroke="#2A3B5F"/>
<text x="480" y="110" fill="#93A4C3" font-size="13" font-weight="700" letter-spacing="2" text-anchor="middle">2 — THE JUMP</text>
<rect x="660" y="80" width="260" height="320" rx="14" fill="none" stroke="#2A3B5F"/>
<text x="790" y="110" fill="#93A4C3" font-size="13" font-weight="700" letter-spacing="2" text-anchor="middle">3 — FRESH SESSION</text>
<rect x="70" y="135" width="200" height="78" rx="12" fill="#111C33" stroke="#2A3B5F"/>
<rect x="70" y="135" width="5" height="78" rx="2.5" fill="#F59E0B"/>
<circle cx="96" cy="162" r="5" fill="#F59E0B"/>
<text x="110" y="167" fill="#E7EEF9" font-size="13" font-weight="700" letter-spacing="1">CHAT</text>
<text x="96" y="193" fill="#93A4C3" font-size="13.5">turns pile up</text>
<rect x="70" y="250" width="200" height="78" rx="12" fill="#111C33" stroke="#2A3B5F"/>
<rect x="70" y="250" width="5" height="78" rx="2.5" fill="#3B82F6"/>
<circle cx="96" cy="277" r="5" fill="#3B82F6"/>
<text x="110" y="282" fill="#E7EEF9" font-size="13" font-weight="700" letter-spacing="1">ROPE</text>
<text x="96" y="308" fill="#93A4C3" font-size="13.5">captures each change</text>
<line x1="170" y1="213" x2="170" y2="246" stroke="#5B708F" stroke-width="2" marker-end="url(#arr)"/>
<text x="200" y="228" fill="#93A4C3" font-size="11.5" font-weight="600" text-anchor="start">state copied,</text>
<text x="200" y="244" fill="#93A4C3" font-size="11.5" font-weight="600" text-anchor="start">compressed</text>
<g opacity="0.38">
<rect x="380" y="135" width="200" height="78" rx="12" fill="#111C33" stroke="#2A3B5F"/>
<rect x="380" y="135" width="5" height="78" rx="2.5" fill="#F59E0B"/>
<circle cx="406" cy="162" r="5" fill="#F59E0B"/>
<text x="420" y="167" fill="#E7EEF9" font-size="13" font-weight="700" letter-spacing="1">CHAT</text>
<text x="406" y="193" fill="#93A4C3" font-size="13.5">erased</text>
</g>
<line x1="392" y1="147" x2="568" y2="201" stroke="#F59E0B" stroke-width="3" stroke-linecap="round"/>
<line x1="568" y1="147" x2="392" y2="201" stroke="#F59E0B" stroke-width="3" stroke-linecap="round"/>
<rect x="377" y="247" width="206" height="84" rx="15" fill="none" stroke="#3B82F6" stroke-opacity="0.35" stroke-width="6"/>
<rect x="380" y="250" width="200" height="78" rx="12" fill="#111C33" stroke="#2A3B5F"/>
<rect x="380" y="250" width="5" height="78" rx="2.5" fill="#3B82F6"/>
<circle cx="406" cy="277" r="5" fill="#3B82F6"/>
<text x="420" y="282" fill="#E7EEF9" font-size="13" font-weight="700" letter-spacing="1">ROPE</text>
<text x="406" y="308" fill="#93A4C3" font-size="13.5">survives — intact</text>
<rect x="690" y="135" width="200" height="78" rx="12" fill="#111C33" stroke="#2A3B5F"/>
<rect x="690" y="135" width="5" height="78" rx="2.5" fill="#34D399"/>
<circle cx="716" cy="162" r="5" fill="#34D399"/>
<text x="730" y="167" fill="#E7EEF9" font-size="13" font-weight="700" letter-spacing="1">MODEL</text>
<text x="716" y="193" fill="#93A4C3" font-size="13.5">resumes from the rope</text>
<rect x="690" y="250" width="200" height="78" rx="12" fill="#111C33" stroke="#2A3B5F"/>
<rect x="690" y="250" width="5" height="78" rx="2.5" fill="#A78BFA"/>
<circle cx="716" cy="277" r="5" fill="#A78BFA"/>
<text x="730" y="282" fill="#E7EEF9" font-size="13" font-weight="700" letter-spacing="1">VAULT</text>
<text x="716" y="308" fill="#93A4C3" font-size="13.5">old detail on demand</text>
<line x1="770" y1="246" x2="770" y2="217" stroke="#5B708F" stroke-width="2" stroke-dasharray="4 6" marker-end="url(#arr)"/>
<text x="786" y="228" fill="#93A4C3" font-size="11.5" font-weight="600" text-anchor="start">lookup by key</text>
<line x1="302" y1="240" x2="346" y2="240" stroke="#3B82F6" stroke-width="3.5" marker-end="url(#arrB)"/>
<line x1="612" y1="240" x2="656" y2="240" stroke="#3B82F6" stroke-width="3.5" marker-end="url(#arrB)"/>
<text x="480" y="424" fill="#93A4C3" font-size="12.5" font-weight="600" text-anchor="middle">In UNBOUND mode the same erase happens continuously — one message at a time, the moment it is saved.</text>
</svg>